PathFileType	4	(X/Y/Z)	./resultDataOpenSim/trcMotMarkerGrf/sub10/qtm-15-08.trc
DataRate	CameraRate	NumFrames	NumMarkers	Units	OrigDataRate	OrigDataStartFrame	OrigNumFrames
250.000000	250.000000	14	24	m	250.000000	64	507
Frame#	Time	L.Toe.Tip			R.Toe.Tip			L.Ankle.Lat			R.Ankle.Lat			L.Ankle.Med			R.Ankle.Med			L.Heel			R.Heel			L.Knee.Lat			R.Knee.Lat			L.Knee.Med			R.Knee.Med			L.Thigh.Upper			R.Thigh.Upper			L.ASIS			R.ASIS			V.Sacral			L.Acromium			R.Acromium			C7			L.Elbow			R.Elbow			L.Wrist.Lat			R.Wrist.Lat
		X1	Y1	Z1	X2	Y2	Z2	X3	Y3	Z3	X4	Y4	Z4	X5	Y5	Z5	X6	Y6	Z6	X7	Y7	Z7	X8	Y8	Z8	X9	Y9	Z9	X10	Y10	Z10	X11	Y11	Z11	X12	Y12	Z12	X13	Y13	Z13	X14	Y14	Z14	X15	Y15	Z15	X16	Y16	Z16	X17	Y17	Z17	X18	Y18	Z18	X19	Y19	Z19	X20	Y20	Z20	X21	Y21	Z21	X22	Y22	Z22	X23	Y23	Z23	X24	Y24	Z24

64	0.252	-1.365182	0.055852391	-0.069898575	-0.70191504	0.040018141	0.034391958	-1.3613009	0.18598156	-0.13011621	-0.84610396	0.050601882	0.068422729	-1.3354211	0.19078909	-0.050375486	-0.82541532	0.083811785	-0.011354876	-1.4028398	0.23991615	-0.090911663	-0.89239976	0.028707347	0.016933809	-1.0633439	0.42295782	-0.15047996	-0.83855905	0.45039962	0.12458728	-1.0459461	0.38551516	-0.035985666	-0.84170874	0.46251543	-0.0027259991	-0.97918653	0.79586728	-0.18790221	-0.9120982	0.86695236	0.18694756	-0.90391856	0.90740262	-0.13885572	-0.85757968	0.94622932	0.096488941	-1.0802235	0.94735143	0.0082737232	-0.96590564	1.4066387	-0.15691757	-0.99042109	1.3915354	0.16642044	-1.061401	1.4237262	-0.00071514984	-1.0303684	1.0611178	-0.19878432	-1.1131785	1.0701417	0.19230593	-0.84457472	0.89965063	-0.21878942	-1.0650048	0.84878418	0.27848593
65	0.256	-1.359159	0.05796425	-0.071014383	-0.7018699	0.03997223	0.034345816	-1.3522855	0.18854032	-0.13029138	-0.8460388	0.050541119	0.068392831	-1.3260088	0.19295319	-0.050669892	-0.82528872	0.08380144	-0.011349387	-1.3928633	0.24310669	-0.090853003	-0.89243045	0.028714287	0.017028895	-1.0529036	0.4225797	-0.15082232	-0.83661877	0.45034519	0.12505118	-1.0352313	0.38541768	-0.036171101	-0.83957901	0.46220895	-0.0024449361	-0.97380608	0.79640599	-0.18754215	-0.90715326	0.8673742	0.18699257	-0.89851938	0.9083122	-0.13867752	-0.85241971	0.94691222	0.096886254	-1.0753458	0.94782542	0.0082976072	-0.96075708	1.4074696	-0.15654608	-0.98447201	1.3922196	0.16683014	-1.0560003	1.4245686	-3.5222085e-05	-1.0256995	1.0622331	-0.19856548	-1.1068516	1.0706382	0.19311354	-0.84095519	0.89958865	-0.21887905	-1.0577877	0.84929074	0.2791091
66	0.26	-1.3523304	0.060261172	-0.072183214	-0.70180431	0.039927077	0.034302531	-1.3430284	0.1911309	-0.13043785	-0.84584656	0.050513572	0.068365024	-1.3170059	0.19500858	-0.050683585	-0.82514186	0.083792048	-0.011351562	-1.3830252	0.24608107	-0.090624585	-0.8924466	0.028728961	0.017132931	-1.0424652	0.42230444	-0.15112359	-0.83482221	0.45035145	0.12552167	-1.0247337	0.38547359	-0.036294629	-0.83739815	0.4619041	-0.0021851559	-0.96847204	0.79699974	-0.18716971	-0.90221848	0.86775216	0.1870245	-0.89321374	0.90927219	-0.13855696	-0.84724379	0.9475208	0.097260499	-1.0704591	0.94826774	0.0083765993	-0.95563147	1.4082718	-0.15620928	-0.97852403	1.3929158	0.16724034	-1.0506024	1.425418	0.00064274977	-1.0210592	1.0633215	-0.19838629	-1.100685	1.0711421	0.19362532	-0.83734431	0.89952137	-0.21901351	-1.050458	0.84979999	0.27969074
67	0.264	-1.3446599	0.062666544	-0.07338206	-0.70172718	0.039885048	0.034264598	-1.3337272	0.19370137	-0.13048503	-0.84547383	0.050532265	0.068355306	-1.3079226	0.19699053	-0.050584376	-0.82498472	0.083786901	-0.011356586	-1.3733056	0.2488669	-0.090290914	-0.89245502	0.028750341	0.017230912	-1.032007	0.42213387	-0.15137323	-0.833146	0.45046998	0.12597357	-1.0143527	0.38565416	-0.036365903	-0.83515241	0.46163216	-0.0019528355	-0.96320388	0.79759737	-0.18681279	-0.89729813	0.86812114	0.18706703	-0.8880765	0.91025953	-0.13850244	-0.84210309	0.94806588	0.097600321	-1.0655559	0.94868078	0.0085236917	-0.95052666	1.409043	-0.15589506	-0.97253903	1.393627	0.16762031	-1.0452197	1.4262711	0.0013035996	-1.016442	1.0643823	-0.19823999	-1.0946844	1.0716475	0.19382602	-0.83375137	0.89945032	-0.21918358	-1.0429536	0.85031592	0.28028119
68	0.268	-1.3361449	0.065052006	-0.074523789	-0.70165017	0.03984816	0.034234807	-1.3244474	0.19619962	-0.13040834	-0.84494667	0.050584884	0.068378688	-1.2986103	0.19892062	-0.050443483	-0.82483541	0.083787555	-0.01135689	-1.3636927	0.25146079	-0.089855901	-0.89246354	0.028777761	0.017310058	-1.0215221	0.4220511	-0.15159562	-0.83153436	0.45069949	0.1263997	-1.0038337	0.38595257	-0.036432288	-0.83293955	0.46140957	-0.0017283604	-0.95800978	0.79816283	-0.18649463	-0.89236749	0.86849818	0.18713659	-0.8831021	0.91125561	-0.13851689	-0.83707532	0.94856787	0.097886171	-1.0606481	0.94907338	0.0087150067	-0.94544422	1.4097842	-0.1555854	-0.96650966	1.3943549	0.16796115	-1.0398596	1.4271231	0.0019408704	-1.0118468	1.065419	-0.19811319	-1.0887154	1.0721498	0.19399642	-0.8301856	0.89938006	-0.21937939	-1.0353034	0.8508373	0.28088496
69	0.272	-1.3268335	0.067297919	-0.07551134	-0.7015861	0.039817313	0.034215976	-1.3151323	0.19858886	-0.13024325	-0.84442303	0.050637057	0.068429563	-1.2891207	0.20081484	-0.050268024	-0.82471606	0.083795673	-0.011343557	-1.3541543	0.25384176	-0.089291695	-0.89247817	0.028810397	0.017367846	-1.0110121	0.42205068	-0.1518083	-0.82984409	0.45096808	0.12682443	-0.99283387	0.38638592	-0.036590428	-0.83086822	0.46123442	-0.0014860092	-0.95287635	0.79869743	-0.18620236	-0.88739202	0.86887855	0.18724771	-0.87824126	0.91225377	-0.13859186	-0.83219717	0.94904698	0.098114357	-1.0557568	0.9494641	0.0089218871	-0.9403891	1.4105025	-0.15527491	-0.96048583	1.3951022	0.16829144	-1.0345209	1.4279595	0.002556324	-1.0072771	1.0664329	-0.19799762	-1.0825994	1.0726567	0.19449636	-0.82664992	0.89931532	-0.21959179	-1.0276248	0.85135512	0.28145326
70	0.276	-1.3168642	0.069332623	-0.076327251	-0.70154557	0.039792254	0.034210108	-1.3057035	0.20084505	-0.13003196	-0.84408469	0.050670625	0.068472816	-1.2795134	0.2026796	-0.050059852	-0.82464372	0.083814325	-0.011311246	-1.3446606	0.2559906	-0.08861757	-0.8925019	0.028845742	0.017411111	-1.0004793	0.42214174	-0.15199311	-0.82790302	0.45120694	0.12727675	-0.98115197	0.3869828	-0.036942757	-0.82894675	0.46109496	-0.0012192165	-0.94778572	0.79922307	-0.18589538	-0.88237622	0.86925379	0.18741463	-0.87345495	0.91325348	-0.13870666	-0.82741888	0.9495188	0.098335173	-1.0508922	0.9498692	0.0091350652	-0.93536611	1.4112073	-0.15496854	-0.95453033	1.3958672	0.1686453	-1.0292009	1.4287688	0.0031551691	-1.0027379	1.0674189	-0.19789285	-1.0762839	1.0731719	0.19541444	-0.82314689	0.89925645	-0.21981387	-1.0200118	0.85186384	0.28194467
71	0.28	-1.3064339	0.071134256	-0.07702811	-0.70153475	0.039772068	0.034218023	-1.296109	0.20296086	-0.1297841	-0.84397947	0.050699493	0.068478096	-1.2698012	0.20449684	-0.049820097	-0.82462566	0.083846707	-0.011259864	-1.3352158	0.25789892	-0.087921395	-0.89253568	0.028880452	0.017449921	-0.98991948	0.42233457	-0.15213115	-0.82570746	0.45141461	0.12774448	-0.96912837	0.38771789	-0.037442745	-0.82712385	0.46098311	-0.00092892015	-0.94272352	0.79976355	-0.18552802	-0.87738521	0.86962079	0.18763651	-0.86872937	0.91425421	-0.13883766	-0.82265179	0.94998769	0.098621855	-1.046041	0.95028902	0.0093663786	-0.93037981	1.4119045	-0.15466365	-0.94865914	1.3966413	0.16902697	-1.0239018	1.4295523	0.0037384422	-0.99823336	1.068371	-0.19780053	-1.0698418	1.0736808	0.19657903	-0.81968358	0.89919955	-0.22004039	-1.012434	0.85237165	0.28236502
72	0.284	-1.295675	0.072717328	-0.077664338	-0.70155466	0.03975619	0.034241208	-1.286341	0.20493849	-0.12947829	-0.84402965	0.050735674	0.068459996	-1.2599336	0.20623357	-0.049550783	-0.82466017	0.083893991	-0.011191407	-1.3258355	0.25956602	-0.087277595	-0.89257856	0.028913019	0.017490703	-0.97932206	0.42263152	-0.15224128	-0.82350674	0.45159694	0.12818058	-0.95762619	0.38846693	-0.037819082	-0.82538273	0.46089362	-0.0006108169	-0.9376711	0.80034364	-0.18506353	-0.87249386	0.86997701	0.18789649	-0.86406696	0.91525228	-0.13897269	-0.81785966	0.95044851	0.09900549	-1.0411893	0.95071353	0.0096305583	-0.92543267	1.4125967	-0.15435074	-0.94283664	1.3974182	0.16941102	-1.0186286	1.430318	0.0042999028	-0.99376228	1.0692873	-0.19771547	-1.0633647	1.0741632	0.19780991	-0.81626111	0.89914353	-0.22026804	-1.0047594	0.85289583	0.28275801
73	0.288	-1.2845762	0.074122653	-0.078262444	-0.70160127	0.039745223	0.034282745	-1.2764593	0.20676885	-0.12908224	-0.84415099	0.050774444	0.068456434	-1.2498515	0.2078704	-0.049259866	-0.82473839	0.083955093	-0.01110863	-1.3165051	0.26099039	-0.086678366	-0.89262591	0.028944667	0.017532582	-0.96868598	0.42302423	-0.15235866	-0.82168761	0.45168549	0.12856924	-0.94719702	0.38911184	-0.037840018	-0.82375524	0.46081829	-0.00026587512	-0.93261611	0.80098641	-0.1845082	-0.8677222	0.87031628	0.18818295	-0.85946621	0.91624035	-0.13911357	-0.81307333	0.95089181	0.099467141	-1.036352	0.95114062	0.0099284701	-0.92051849	1.4132817	-0.1540306	-0.93702216	1.3982013	0.16977147	-1.0133833	1.4310688	0.0048344224	-0.9893219	1.0701678	-0.19763061	-1.0569249	1.074622	0.19904792	-0.81286914	0.89909376	-0.22049814	-0.99686234	0.85345002	0.28317818
74	0.292	-1.2730405	0.075402847	-0.078865453	-0.70166681	0.039739775	0.034344283	-1.266549	0.20843229	-0.12858254	-0.84430789	0.050815424	0.068480704	-1.2395824	0.2094058	-0.048946365	-0.82484636	0.084027201	-0.011016239	-1.3071826	0.26216046	-0.086067356	-0.89267083	0.028978229	0.017569498	-0.95803153	0.42350115	-0.15248922	-0.82048698	0.45161172	0.12894946	-0.93750455	0.38966498	-0.037580643	-0.82226929	0.46074959	9.8455436e-05	-0.92757489	0.80169905	-0.18394462	-0.86303643	0.87062968	0.18850098	-0.85488505	0.9172107	-0.13925786	-0.80835703	0.95130576	0.099967625	-1.0315613	0.95157695	0.010252112	-0.91562488	1.4139509	-0.15371605	-0.93120841	1.3989967	0.1701069	-1.008164	1.431798	0.0053422208	-0.98491637	1.0710141	-0.19755179	-1.0505762	1.0750899	0.20033172	-0.80950409	0.89905665	-0.22073505	-0.98871816	0.85402916	0.28363724
75	0.296	-1.2610097	0.076588762	-0.07951524	-0.70174251	0.03973878	0.034425053	-1.2565942	0.20991431	-0.1280207	-0.8444918	0.050867322	0.068521834	-1.2291987	0.21083353	-0.048607165	-0.82496671	0.084105442	-0.010919611	-1.2978318	0.26305471	-0.085399835	-0.89270843	0.029015501	0.017593783	-0.94738536	0.42405656	-0.15261101	-0.8197236	0.45143722	0.12936451	-0.92788637	0.39021486	-0.037268896	-0.82090212	0.46068307	0.00048426219	-0.92257443	0.80246944	-0.18347561	-0.85838726	0.87091375	0.18886833	-0.85022239	0.91815932	-0.13938114	-0.80379554	0.95168248	0.10045866	-1.0268307	0.95202298	0.010596361	-0.91074944	1.4145949	-0.15341321	-0.92542309	1.399805	0.17043934	-1.002969	1.4324969	0.0058242904	-0.98055585	1.0718332	-0.19749332	-1.0443138	1.0755937	0.20172858	-0.80618377	0.89903369	-0.22098028	-0.98039207	0.85460946	0.28408207
76	0.3	-1.248523	0.077668591	-0.080211434	-0.70182224	0.039740317	0.034526118	-1.2464466	0.21121205	-0.12747951	-0.84469561	0.050935087	0.068570771	-1.2187381	0.21212178	-0.048246216	-0.82508136	0.084183315	-0.010822809	-1.2884353	0.26365787	-0.084654719	-0.89273657	0.029055432	0.017598343	-0.93676205	0.42468582	-0.15271038	-0.81897789	0.45129694	0.12981753	-0.91803652	0.39081967	-0.037028794	-0.81958655	0.46061982	0.00089833999	-0.91761048	0.80328713	-0.18313268	-0.85373118	0.87117628	0.18930678	-0.8454082	0.91909011	-0.13945506	-0.799446	0.95202756	0.10090248	-1.0221439	0.95247932	0.010952153	-0.90591232	1.4152112	-0.15311409	-0.91970348	1.4006152	0.17079102	-0.99779446	1.4331695	0.0062828922	-0.97624488	1.0726305	-0.19745576	-1.0380372	1.0761155	0.20327636	-0.80292792	0.89901986	-0.22122928	-0.97195329	0.85517343	0.28446155
77	0.304	-1.2356691	0.078614054	-0.080935575	-0.7019039	0.039744022	0.034650612	-1.2359538	0.21233727	-0.12702107	-0.84491453	0.051015742	0.068626447	-1.2081991	0.21322445	-0.0478635	-0.82517652	0.084254942	-0.010729809	-1.2789817	0.26397576	-0.083826107	-0.89275434	0.029096239	0.017580491	-0.92616522	0.42538098	-0.15279229	-0.81803441	0.45124343	0.13027644	-0.90795455	0.3915045	-0.036865661	-0.81828262	0.46056844	0.0013319851	-0.91264632	0.80415783	-0.18288438	-0.84904311	0.87142753	0.18982931	-0.84055477	0.9200134	-0.13948862	-0.79525494	0.95236026	0.10131915	-1.0174745	0.95295416	0.011301549	-0.90114862	1.415807	-0.15281666	-0.91406125	1.4014108	0.17116347	-0.99263488	1.433831	0.0067228411	-0.97197633	1.0734011	-0.19742064	-1.0315922	1.0765933	0.20492081	-0.79972778	0.89900634	-0.22147438	-0.96345469	0.85572453	0.28478112
